<?xml version="1.0" encoding="UTF-8"?>
<svg id="Layer_1" data-name="Layer 1" xmlns="http://www.w3.org/2000/svg" viewBox="0 0 24 24">
  <defs>
    <style>
      .cls-1 {
        fill-rule: evenodd;
      }
    </style>
  </defs>
  <path class="cls-1" d="M18.48,19.79h0s.02-.05,.02-.05l3-15.12v-.05c0-.38-.14-.71-.44-.9-.27-.17-.57-.18-.78-.17-.23,.02-.44,.07-.59,.12-.08,.02-.14,.05-.18,.07-.02,0-.04,.02-.05,.02h-.01S2.72,10.28,2.72,10.28h0s-.02,0-.04,.01c-.03,.01-.07,.03-.11,.05-.09,.04-.22,.1-.34,.19-.21,.15-.62,.5-.55,1.05,.06,.46,.37,.75,.59,.9,.11,.08,.22,.14,.3,.18,.04,.02,.07,.03,.1,.04,.01,0,.02,0,.03,.01h.01s0,0,0,0l2.93,.98c0,.18,0,.37,.06,.56l1.47,5.56c.17,.66,.77,1.12,1.45,1.12,.61,0,1.15-.37,1.38-.92l2.29-2.45,3.93,3.01,.06,.02c.36,.16,.69,.21,1,.16,.3-.04,.55-.17,.73-.31,.18-.14,.3-.3,.38-.43,.04-.06,.07-.12,.09-.16,.01-.02,.02-.04,.02-.05v-.02s.01,0,.01,0h0ZM7.13,13.87c-.03-.13,.02-.26,.13-.33l9.92-6.3s.58-.35,.56,0c0,0,.1,.06-.21,.35-.3,.28-7.07,6.82-7.76,7.48-.04,.04-.06,.08-.08,.14l-1.11,4.22-1.47-5.56Z"/>
</svg>