<?xml version="1.0" encoding="UTF-8"?>
<svg id="Layer_1" data-name="Layer 1" xmlns="http://www.w3.org/2000/svg" viewBox="0 0 24 24">
  <defs>
    <style>
      .cls-1 {
        fill-rule: evenodd;
      }
    </style>
  </defs>
  <path class="cls-1" d="M2.18,21.33c-.08,.3,.19,.57,.49,.49l4.61-1.2c1.45,.79,3.09,1.21,4.76,1.21h0c5.49,0,9.96-4.45,9.96-9.91,0-2.65-1.03-5.14-2.91-7.01-1.88-1.87-4.38-2.9-7.04-2.9C6.56,2,2.08,6.45,2.08,11.91c0,1.74,.46,3.45,1.33,4.95l-1.23,4.47ZM8.89,7.17c.18,0,.39,.01,.58,.44,.13,.29,.34,.81,.52,1.24,.14,.33,.25,.61,.28,.66,.06,.13,.1,.28,.02,.45,0,.02-.02,.04-.03,.06-.07,.14-.12,.24-.23,.37-.05,.05-.1,.11-.14,.17-.09,.1-.17,.21-.24,.28-.13,.13-.26,.27-.11,.52,.15,.26,.67,1.1,1.43,1.78,.82,.73,1.54,1.04,1.9,1.2,.07,.03,.13,.06,.17,.08,.26,.13,.41,.11,.56-.06,.15-.17,.64-.75,.82-1,.17-.26,.34-.22,.58-.13,.24,.09,1.5,.71,1.76,.84,.05,.03,.1,.05,.14,.07,.18,.09,.3,.14,.35,.23,.06,.11,.06,.62-.15,1.22-.22,.6-1.27,1.18-1.74,1.22-.05,0-.09,0-.14,.02-.44,.05-.99,.12-2.96-.66-2.43-.95-4.03-3.32-4.35-3.8-.03-.04-.04-.06-.05-.08h0c-.15-.2-1.05-1.41-1.05-2.65s.59-1.81,.85-2.09c.02-.02,.03-.03,.05-.05,.24-.26,.51-.32,.69-.32s.35,0,.49,0Z"/>
</svg>