<svg width="394" height="948" viewBox="0 0 394 948" fill="none" xmlns="http://www.w3.org/2000/svg">
<rect x="277.543" y="393.039" width="29.114" height="29.114" fill="#F16530"/>
<rect x="233.582" y="437.002" width="29.114" height="29.1143" fill="#F16530"/>
<rect x="277.543" y="131.014" width="29.114" height="29.114" fill="#EBEBEB"/>
<rect x="-28.1523" y="87.3438" width="29.114" height="29.114" fill="#EBEBEB"/>
<rect opacity="0.4" x="-28.1523" width="29.114" height="29.114" fill="#EBEBEB"/>
<rect x="190.203" y="393.039" width="29.114" height="29.114" fill="#EBEBEB"/>
<rect opacity="0.4" x="102.859" width="29.114" height="29.114" rx="14.557" fill="#EBEBEB"/>
<rect x="190.203" y="131.014" width="29.114" height="29.114" fill="#EBEBEB"/>
<rect x="149.531" y="393.039" width="22.11" height="22.11" fill="#EBEBEB"/>
<rect opacity="0.2" x="321.215" y="131.014" width="29.114" height="29.114" fill="#EBEBEB"/>
<rect opacity="0.4" x="15.5176" width="29.114" height="29.114" fill="#EBEBEB"/>
<rect opacity="0.8" x="364.887" y="436.711" width="29.114" height="29.114" fill="#EBEBEB"/>
<rect x="59.1895" y="393.039" width="22.11" height="22.11" fill="#EBEBEB"/>
<rect x="102.859" y="131.014" width="29.114" height="29.114" fill="#EBEBEB"/>
<rect opacity="0.8" x="277.543" y="437.002" width="29.114" height="29.1143" fill="#EBEBEB"/>
<rect opacity="0.8" x="366.887" y="398.039" width="22.11" height="22.11" fill="#EBEBEB"/>
<rect opacity="0.2" x="277.543" width="22.11" height="22.11" fill="#EBEBEB"/>
<rect opacity="0.8" x="321.215" y="393.039" width="29.114" height="29.114" fill="#EBEBEB"/>
<rect opacity="0.6" x="59.1895" y="87.3438" width="29.114" height="29.114" fill="#EBEBEB"/>
<rect opacity="0.4" x="59.1895" width="29.114" height="29.114" fill="#EBEBEB"/>
<rect opacity="0.6" x="146.531" y="87.3438" width="29.114" height="29.114" fill="#EBEBEB"/>
<rect opacity="0.3" x="233.873" width="29.114" height="29.114" fill="#EBEBEB"/>
<rect x="233.873" y="131.014" width="29.114" height="29.114" fill="#EBEBEB"/>
<rect opacity="0.8" x="321.215" y="43.6719" width="22.11" height="22.11" rx="11.055" fill="#EBEBEB"/>
<rect x="15.5176" y="131.014" width="29.114" height="29.114" fill="#EBEBEB"/>
<rect opacity="0.3" x="277.543" y="43.6699" width="29.114" height="29.114" fill="#EBEBEB"/>
<rect x="146.531" y="131.014" width="29.114" height="29.114" fill="#EBEBEB"/>
<rect opacity="0.2" x="233.873" y="43.6699" width="29.114" height="29.114" fill="#EBEBEB"/>
<rect opacity="0.3" x="190.203" y="43.6719" width="29.114" height="29.114" fill="#EBEBEB"/>
<rect x="59.1895" y="131.014" width="29.114" height="29.114" fill="#EBEBEB"/>
<rect opacity="0.6" x="146.531" y="43.6699" width="29.114" height="29.114" fill="#EBEBEB"/>
<rect opacity="0.6" x="102.859" y="43.6699" width="22.11" height="22.11" fill="#EBEBEB"/>
<rect x="-28.1523" y="131.014" width="29.114" height="29.114" fill="#F16530"/>
<rect opacity="0.6" x="59.1895" y="43.6699" width="29.114" height="29.114" fill="#EBEBEB"/>
<rect opacity="0.3" x="277.543" y="87.3438" width="29.114" height="29.114" fill="#EBEBEB"/>
<rect x="190.203" y="87.3438" width="29.114" height="29.114" fill="#EBEBEB"/>
<rect opacity="0.35" x="233.873" y="87.3438" width="29.114" height="29.114" rx="14.557" fill="#EBEBEB"/>
<rect opacity="0.6" x="102.859" y="87.3438" width="29.114" height="29.114" rx="14.557" fill="#EBEBEB"/>
<rect x="18.5176" y="90.3438" width="22.11" height="22.11" fill="#EBEBEB"/>
<rect opacity="0.1" x="364.887" y="174.684" width="29.114" height="29.114" fill="#EBEBEB"/>
<rect opacity="0.2" x="321.215" y="174.684" width="29.114" height="29.114" fill="#EBEBEB"/>
<rect opacity="0.3" x="277.543" y="174.684" width="29.114" height="29.114" fill="#EBEBEB"/>
<rect x="233.873" y="174.684" width="29.114" height="29.114" fill="#EBEBEB"/>
<rect x="190.203" y="174.684" width="29.114" height="29.114" fill="#EBEBEB"/>
<rect x="146.531" y="174.684" width="29.114" height="29.114" fill="#EBEBEB"/>
<rect x="102.859" y="174.684" width="29.114" height="29.114" fill="#EBEBEB"/>
<rect x="59.1895" y="174.684" width="29.114" height="29.114" fill="#EBEBEB"/>
<rect opacity="0.5" x="15.5176" y="174.684" width="29.114" height="29.114" fill="#F16530"/>
<rect x="-28.1523" y="174.684" width="29.114" height="29.114" fill="#EBEBEB"/>
<rect x="-28.1523" y="436.711" width="29.114" height="29.114" fill="#EBEBEB"/>
<rect x="277.543" y="218.355" width="29.114" height="29.114" fill="#EBEBEB"/>
<rect x="233.873" y="218.355" width="29.114" height="29.114" rx="14.557" fill="#EBEBEB"/>
<rect x="190.203" y="218.355" width="29.114" height="29.114" fill="#EBEBEB"/>
<rect x="146.531" y="218.355" width="29.114" height="29.114" fill="#EBEBEB"/>
<rect x="102.859" y="218.355" width="29.114" height="29.114" fill="#EBEBEB"/>
<rect opacity="0.8" x="59.1895" y="218.355" width="29.114" height="29.114" fill="#F16530"/>
<rect opacity="0.8" x="15.5176" y="218.355" width="29.114" height="29.114" rx="14.557" fill="#F16530"/>
<rect x="-28.1523" y="218.355" width="29.114" height="29.114" fill="#EBEBEB"/>
<rect x="321.215" y="262.027" width="29.114" height="29.114" fill="#EBEBEB"/>
<rect x="277.543" y="262.027" width="29.114" height="29.1143" fill="#EBEBEB"/>
<rect x="233.873" y="262.027" width="29.114" height="29.1143" fill="#EBEBEB"/>
<rect x="190.203" y="262.027" width="29.114" height="29.114" fill="#EBEBEB"/>
<rect x="146.531" y="262.027" width="29.114" height="29.1143" fill="#EBEBEB"/>
<rect x="102.859" y="262.027" width="29.114" height="29.1143" fill="#F16530"/>
<rect x="59.1895" y="262.027" width="29.114" height="29.1143" fill="#EBEBEB"/>
<rect x="15.5176" y="262.027" width="29.114" height="29.1143" fill="#EBEBEB"/>
<rect x="-28.1523" y="262.027" width="29.114" height="29.1143" fill="#EBEBEB"/>
<rect x="367.887" y="311.697" width="22.11" height="22.11" fill="#EBEBEB"/>
<rect x="321.215" y="305.697" width="29.114" height="29.114" fill="#EBEBEB"/>
<rect x="277.543" y="305.697" width="29.114" height="29.114" rx="14.557" fill="#EBEBEB"/>
<rect x="233.873" y="305.697" width="29.114" height="29.114" fill="#EBEBEB"/>
<rect x="190.203" y="305.697" width="29.114" height="29.114" fill="#EBEBEB"/>
<rect x="146.531" y="305.697" width="29.114" height="29.114" fill="#F16530"/>
<rect x="102.859" y="305.697" width="29.114" height="29.114" rx="14.557" fill="#EBEBEB"/>
<rect x="59.1895" y="305.697" width="29.114" height="29.114" fill="#EBEBEB"/>
<rect x="20.5176" y="305.697" width="22.11" height="22.11" fill="#EBEBEB"/>
<rect x="-28.1523" y="305.697" width="29.114" height="29.114" fill="#EBEBEB"/>
<rect opacity="0.8" x="364.887" y="349.367" width="29.114" height="29.114" fill="#EBEBEB"/>
<rect opacity="0.8" x="321.215" y="349.367" width="29.114" height="29.114" fill="#EBEBEB"/>
<rect opacity="0.8" x="277.543" y="349.367" width="29.114" height="29.114" rx="14.557" fill="#F16530"/>
<rect x="233.873" y="349.367" width="29.114" height="29.114" fill="#F16530"/>
<rect x="190.203" y="349.367" width="29.114" height="29.114" fill="#F16530"/>
<rect x="146.531" y="349.367" width="29.114" height="29.114" fill="#EBEBEB"/>
<rect x="102.859" y="349.367" width="29.114" height="29.114" fill="#EBEBEB"/>
<rect x="59.1895" y="349.367" width="22.11" height="22.11" fill="#EBEBEB"/>
<rect x="-28.1523" y="349.367" width="29.114" height="29.114" fill="#EBEBEB"/>
<rect x="262.986" y="860.656" width="29.114" height="29.114" transform="rotate(-180 262.986 860.656)" fill="#EBEBEB"/>
<rect opacity="0.4" x="259.986" y="948" width="22.11" height="22.11" transform="rotate(-180 259.986 948)" fill="#EBEBEB"/>
<rect x="40.6328" y="554.961" width="22.11" height="22.11" transform="rotate(-180 40.6328 554.961)" fill="#EBEBEB"/>
<rect opacity="0.4" x="131.975" y="948" width="22.11" height="22.11" rx="11.055" transform="rotate(-180 131.975 948)" fill="#EBEBEB"/>
<rect x="44.6328" y="816.986" width="29.114" height="29.114" transform="rotate(-180 44.6328 816.986)" fill="#EBEBEB"/>
<rect opacity="0.6" x="350.328" y="860.656" width="29.114" height="29.114" rx="14.557" transform="rotate(-180 350.328 860.656)" fill="#F16530"/>
<rect x="85.3027" y="554.961" width="22.11" height="22.11" transform="rotate(-180 85.3027 554.961)" fill="#EBEBEB"/>
<rect opacity="0.2" x="350.328" y="948" width="29.114" height="29.114" transform="rotate(-180 350.328 948)" fill="#EBEBEB"/>
<rect opacity="0.4" x="216.316" y="948" width="22.11" height="22.11" transform="rotate(-180 216.316 948)" fill="#EBEBEB"/>
<rect opacity="0.6" x="306.658" y="554.961" width="29.114" height="29.114" transform="rotate(-180 306.658 554.961)" fill="#F16530"/>
<rect opacity="0.2" x="394" y="948" width="29.114" height="29.114" rx="14.557" transform="rotate(-180 394 948)" fill="#EBEBEB"/>
<rect x="172.645" y="554.961" width="22.11" height="22.11" transform="rotate(-180 172.645 554.961)" fill="#EBEBEB"/>
<rect x="131.975" y="816.986" width="29.114" height="29.114" transform="rotate(-180 131.975 816.986)" fill="#EBEBEB"/>
<rect opacity="0.2" x="394" y="554.961" width="29.114" height="29.114" transform="rotate(-180 394 554.961)" fill="#EBEBEB"/>
<rect opacity="0.6" x="350.328" y="554.961" width="22.11" height="22.11" transform="rotate(-180 350.328 554.961)" fill="#EBEBEB"/>
<rect opacity="0.3" x="350.328" y="816.986" width="29.114" height="29.114" transform="rotate(-180 350.328 816.986)" fill="#EBEBEB"/>
<rect opacity="0.6" x="175.645" y="860.656" width="29.114" height="29.114" transform="rotate(-180 175.645 860.656)" fill="#EBEBEB"/>
<rect opacity="0.4" x="175.645" y="948" width="29.114" height="29.114" transform="rotate(-180 175.645 948)" fill="#EBEBEB"/>
<rect opacity="0.6" x="84.3027" y="860.656" width="22.11" height="22.11" transform="rotate(-180 84.3027 860.656)" fill="#EBEBEB"/>
<rect opacity="0.3" x="0.960815" y="948" width="29.114" height="29.114" transform="rotate(-180 0.960815 948)" fill="#EBEBEB"/>
<rect x="0.960938" y="816.986" width="29.114" height="29.114" transform="rotate(-180 0.960938 816.986)" fill="#EBEBEB"/>
<rect x="219.316" y="816.986" width="29.114" height="29.114" transform="rotate(-180 219.316 816.986)" fill="#EBEBEB"/>
<rect x="88.3027" y="816.986" width="29.114" height="29.114" transform="rotate(-180 88.3027 816.986)" fill="#EBEBEB"/>
<rect opacity="0.2" x="0.960938" y="904.33" width="29.114" height="29.114" transform="rotate(-180 0.960938 904.33)" fill="#EBEBEB"/>
<rect x="306.658" y="816.986" width="29.114" height="29.114" transform="rotate(-180 306.658 816.986)" fill="#F16530"/>
<rect opacity="0.3" x="39.6328" y="900.328" width="22.11" height="22.11" transform="rotate(-180 39.6328 900.328)" fill="#EBEBEB"/>
<rect x="175.645" y="816.986" width="29.114" height="29.114" transform="rotate(-180 175.645 816.986)" fill="#EBEBEB"/>
<rect opacity="0.6" x="83.3027" y="900.328" width="22.11" height="22.11" transform="rotate(-180 83.3027 900.328)" fill="#EBEBEB"/>
<rect opacity="0.32" x="394" y="816.986" width="29.114" height="29.114" transform="rotate(-180 394 816.986)" fill="#EBEBEB"/>
<rect opacity="0.6" x="129.975" y="900.328" width="22.11" height="22.11" transform="rotate(-180 129.975 900.328)" fill="#EBEBEB"/>
<rect x="262.986" y="816.986" width="29.114" height="29.114" transform="rotate(-180 262.986 816.986)" fill="#F16530"/>
<rect opacity="0.6" x="175.645" y="904.33" width="29.114" height="29.114" transform="rotate(-180 175.645 904.33)" fill="#EBEBEB"/>
<rect x="306.658" y="904.33" width="22.11" height="22.11" transform="rotate(-180 306.658 904.33)" fill="#EBEBEB"/>
<rect opacity="0.46" x="350.328" y="904.33" width="22.11" height="22.11" transform="rotate(-180 350.328 904.33)" fill="#EBEBEB"/>
<rect x="37.6328" y="860.656" width="22.11" height="22.11" transform="rotate(-180 37.6328 860.656)" fill="#EBEBEB"/>
<rect opacity="0.2" x="394" y="904.33" width="22.11" height="22.11" transform="rotate(-180 394 904.33)" fill="#F16530"/>
<rect opacity="0.35" x="0.960938" y="860.656" width="29.114" height="29.114" rx="14.557" transform="rotate(-180 0.960938 860.656)" fill="#EBEBEB"/>
<rect opacity="0.6" x="131.975" y="860.656" width="29.114" height="29.114" rx="14.557" transform="rotate(-180 131.975 860.656)" fill="#EBEBEB"/>
<rect x="219.316" y="860.656" width="29.114" height="29.114" transform="rotate(-180 219.316 860.656)" fill="#EBEBEB"/>
<rect x="350.328" y="773.316" width="29.114" height="29.114" transform="rotate(-180 350.328 773.316)" fill="#EBEBEB"/>
<rect x="306.658" y="860.656" width="29.114" height="29.114" transform="rotate(-180 306.658 860.656)" fill="#EBEBEB"/>
<rect x="0.960938" y="773.316" width="29.114" height="29.114" transform="rotate(-180 0.960938 773.316)" fill="#EBEBEB"/>
<rect x="44.6328" y="773.316" width="29.114" height="29.114" transform="rotate(-180 44.6328 773.316)" fill="#EBEBEB"/>
<rect x="88.3027" y="773.316" width="29.114" height="29.114" transform="rotate(-180 88.3027 773.316)" fill="#EBEBEB"/>
<rect x="131.975" y="773.316" width="29.114" height="29.114" transform="rotate(-180 131.975 773.316)" fill="#EBEBEB"/>
<rect x="175.645" y="773.316" width="29.114" height="29.114" transform="rotate(-180 175.645 773.316)" fill="#EBEBEB"/>
<rect x="219.316" y="773.316" width="29.114" height="29.114" transform="rotate(-180 219.316 773.316)" fill="#F16530"/>
<rect x="262.986" y="773.316" width="29.114" height="29.114" transform="rotate(-180 262.986 773.316)" fill="#EBEBEB"/>
<rect x="306.658" y="773.316" width="29.114" height="29.114" transform="rotate(-180 306.658 773.316)" fill="#EBEBEB"/>
<rect opacity="0.2" x="394" y="773.316" width="29.114" height="29.114" transform="rotate(-180 394 773.316)" fill="#EBEBEB"/>
<rect x="262.986" y="511.289" width="29.114" height="29.114" transform="rotate(-180 262.986 511.289)" fill="#F16530"/>
<rect opacity="0.3" x="306.658" y="511.289" width="29.114" height="29.114" transform="rotate(-180 306.658 511.289)" fill="#EBEBEB"/>
<rect opacity="0.3" x="350.328" y="511.289" width="29.114" height="29.114" transform="rotate(-180 350.328 511.289)" fill="#EBEBEB"/>
<rect opacity="0.3" x="394" y="511.289" width="29.114" height="29.114" rx="14.557" transform="rotate(-180 394 511.289)" fill="#EBEBEB"/>
<rect x="0.960938" y="729.645" width="29.114" height="29.114" rx="14.557" transform="rotate(-180 0.960938 729.645)" fill="#EBEBEB"/>
<rect x="44.6328" y="729.645" width="29.114" height="29.114" transform="rotate(-180 44.6328 729.645)" fill="#EBEBEB"/>
<rect x="88.3027" y="729.645" width="29.114" height="29.114" transform="rotate(-180 88.3027 729.645)" fill="#EBEBEB"/>
<rect x="131.975" y="729.645" width="29.114" height="29.114" transform="rotate(-180 131.975 729.645)" fill="#EBEBEB"/>
<rect x="175.645" y="729.645" width="29.114" height="29.114" transform="rotate(-180 175.645 729.645)" fill="#EBEBEB"/>
<rect x="219.316" y="729.645" width="29.114" height="29.114" rx="14.557" transform="rotate(-180 219.316 729.645)" fill="#F16530"/>
<rect x="262.986" y="729.645" width="29.114" height="29.114" transform="rotate(-180 262.986 729.645)" fill="#EBEBEB"/>
<rect x="306.658" y="729.645" width="29.114" height="29.114" transform="rotate(-180 306.658 729.645)" fill="#EBEBEB"/>
<rect x="350.328" y="729.645" width="29.114" height="29.114" transform="rotate(-180 350.328 729.645)" fill="#EBEBEB"/>
<rect x="0.960938" y="685.973" width="29.114" height="29.1143" transform="rotate(-180 0.960938 685.973)" fill="#EBEBEB"/>
<rect x="44.6328" y="685.973" width="29.114" height="29.114" transform="rotate(-180 44.6328 685.973)" fill="#EBEBEB"/>
<rect x="88.3027" y="685.973" width="29.114" height="29.1143" transform="rotate(-180 88.3027 685.973)" fill="#EBEBEB"/>
<rect x="131.975" y="685.973" width="29.114" height="29.1143" transform="rotate(-180 131.975 685.973)" fill="#EBEBEB"/>
<rect x="175.645" y="685.973" width="29.114" height="29.1143" transform="rotate(-180 175.645 685.973)" fill="#EBEBEB"/>
<rect x="219.316" y="685.973" width="29.114" height="29.1143" transform="rotate(-180 219.316 685.973)" fill="#EBEBEB"/>
<rect x="262.986" y="685.973" width="29.114" height="29.1143" transform="rotate(-180 262.986 685.973)" fill="#F16530"/>
<rect x="306.658" y="685.973" width="29.114" height="29.1143" transform="rotate(-180 306.658 685.973)" fill="#EBEBEB"/>
<rect x="350.328" y="685.973" width="29.114" height="29.1143" transform="rotate(-180 350.328 685.973)" fill="#EBEBEB"/>
<rect x="0.960815" y="642.303" width="29.114" height="29.114" transform="rotate(-180 0.960815 642.303)" fill="#EBEBEB"/>
<rect x="44.6328" y="642.303" width="29.114" height="29.114" transform="rotate(-180 44.6328 642.303)" fill="#EBEBEB"/>
<rect x="84.3027" y="642.303" width="22.11" height="22.11" transform="rotate(-180 84.3027 642.303)" fill="#EBEBEB"/>
<rect x="131.975" y="642.303" width="29.114" height="29.114" rx="14.557" transform="rotate(-180 131.975 642.303)" fill="#EBEBEB"/>
<rect x="175.645" y="642.303" width="29.114" height="29.114" transform="rotate(-180 175.645 642.303)" fill="#EBEBEB"/>
<rect x="219.316" y="642.303" width="29.114" height="29.114" transform="rotate(-180 219.316 642.303)" fill="#EBEBEB"/>
<rect x="262.986" y="642.303" width="29.114" height="29.114" transform="rotate(-180 262.986 642.303)" fill="#EBEBEB"/>
<rect x="306.658" y="642.303" width="29.114" height="29.114" rx="14.557" transform="rotate(-180 306.658 642.303)" fill="#F16530"/>
<rect x="350.328" y="642.303" width="29.114" height="29.114" transform="rotate(-180 350.328 642.303)" fill="#EBEBEB"/>
<rect x="394" y="642.303" width="29.114" height="29.114" rx="14.557" transform="rotate(-180 394 642.303)" fill="#EBEBEB"/>
<rect x="0.960938" y="598.633" width="29.114" height="29.114" transform="rotate(-180 0.960938 598.633)" fill="#F16530"/>
<rect x="40.6328" y="598.633" width="22.11" height="22.11" transform="rotate(-180 40.6328 598.633)" fill="#EBEBEB"/>
<rect x="85.3027" y="598.633" width="22.11" height="22.11" transform="rotate(-180 85.3027 598.633)" fill="#EBEBEB"/>
<rect x="131.975" y="598.633" width="29.114" height="29.114" transform="rotate(-180 131.975 598.633)" fill="#EBEBEB"/>
<rect x="175.645" y="598.633" width="29.114" height="29.114" transform="rotate(-180 175.645 598.633)" fill="#EBEBEB"/>
<rect x="262.986" y="598.633" width="29.114" height="29.114" transform="rotate(-180 262.986 598.633)" fill="#EBEBEB"/>
<rect opacity="0.6" x="306.658" y="598.633" width="29.114" height="29.114" transform="rotate(-180 306.658 598.633)" fill="#F16530"/>
</svg>
