<svg width="375" height="699" viewBox="0 0 375 699" fill="none" xmlns="http://www.w3.org/2000/svg"
    preserveAspectRatio="none">
    <path
        d="M93.1 662.328C62.0667 623.669 31.0333 623.669 0 662.328V-30H931V662.328C894.479 693.932 863.446 693.932 837.9 662.328C806.867 613.432 775.833 613.432 744.8 662.328C716.427 711.224 685.393 711.224 651.7 662.328C620.667 620.588 588.017 619.476 558.6 662.328C529.183 705.181 512.5 704.068 465.5 662.328C434.467 641.756 403.433 641.756 372.4 662.328C337.003 682.9 305.969 682.9 279.3 662.328C248.267 633.706 217.233 633.706 186.2 662.328C151.138 690.95 120.105 690.95 93.1 662.328Z"
        fill="url(#paint0_linear_102_3616)" />
    <defs>
        <linearGradient id="paint0_linear_102_3616" x1="465.5" y1="90" x2="465.5" y2="699"
            gradientUnits="userSpaceOnUse">
            <stop stop-color="#FFF0E9" />
            <stop offset="1" stop-color="#FFC9A3" />
        </linearGradient>
    </defs>
</svg>