<svg width="1440" height="739" viewBox="0 0 1440 739" fill="none" xmlns="http://www.w3.org/2000/svg">
<path d="M144 694.5C96 647.588 48 647.588 0 694.5V0H1440V694.5C1383.51 732.85 1335.51 732.85 1296 694.5C1248 635.167 1200 635.167 1152 694.5C1108.11 753.833 1060.11 753.833 1008 694.5C960 643.85 909.5 642.5 864 694.5C818.5 746.5 792.696 745.15 720 694.5C672 669.537 624 669.537 576 694.5C521.25 719.463 473.25 719.463 432 694.5C384 659.768 336 659.768 288 694.5C233.769 729.232 185.769 729.232 144 694.5Z" fill="url(#paint0_linear_107_2066)"/>
<defs>
<linearGradient id="paint0_linear_107_2066" x1="720" y1="0" x2="720" y2="739" gradientUnits="userSpaceOnUse">
<stop stop-color="#FFF0E9"/>
<stop offset="1" stop-color="#FFC9A3"/>
</linearGradient>
</defs>
</svg>
