<svg width="248" height="659" viewBox="0 0 248 659" fill="none" xmlns="http://www.w3.org/2000/svg">
<path opacity="0.1" d="M12.1615 73.358C81.7299 92.2523 151.18 126.045 184.426 190.042C213.523 246.052 161.2 308.51 166.978 371.369C175.763 466.958 296.547 577.006 225.966 642.023C156.661 705.865 61.5349 570.254 -31.2536 553.975C-107.908 540.527 -208.684 619.465 -255.812 557.5C-303.454 494.859 -196.133 417.34 -195.033 338.632C-193.717 244.477 -306.982 146.512 -249.032 72.3174C-193.299 0.962242 -75.1877 49.6346 12.1615 73.358Z" fill="#F16530"/>
<path opacity="0.1" d="M59.3543 7.14705C118.312 34.0203 123.612 115.296 131.525 179.583C137.665 229.471 124.29 277.886 97.9449 320.699C74.236 359.228 39.075 390.339 -4.85237 401.206C-45.7499 411.323 -84.8884 391.934 -123.691 375.526C-166.436 357.452 -216.686 345.252 -236.451 303.276C-257.617 258.324 -247.255 204.784 -225.003 160.359C-202.824 116.079 -161.223 89.5196 -117.614 66.0232C-60.7219 35.3696 0.548645 -19.657 59.3543 7.14705Z" fill="#F16530"/>
</svg>
