<svg width="327" height="636" viewBox="0 0 327 636" fill="none" xmlns="http://www.w3.org/2000/svg">
<path opacity="0.1" d="M233.494 14.3506C260.6 29.5734 281.984 53.6112 290.725 83.4508C299.795 114.412 297.582 148.445 280.857 176.032C264.236 203.448 234.707 218.996 203.677 227.034C172.429 235.129 138.349 236.889 110.786 220.087C83.4217 203.407 71.1537 171.999 62.6814 141.086C53.98 109.338 45.9626 74.1929 63.0973 46.0866C80.1367 18.1368 114.844 8.73829 147.019 2.74574C176.742 -2.7901 207.131 -0.454735 233.494 14.3506Z" fill="#F16530"/>
<path opacity="0.1" d="M207.313 303.851C230.02 259.331 196.027 192.088 236.39 162.605C277.62 132.487 336.971 153.678 383.175 175.388C424.178 194.655 443.996 235.922 470.538 272.627C506.606 322.506 575.168 363.86 563.112 424.226C550.905 485.355 476.049 506.991 418.8 531.7C365.597 554.662 310.441 569.17 253.628 557.798C187.365 544.533 94.593 530.837 82.4717 464.375C69.8321 395.071 175.298 366.619 207.313 303.851Z" fill="#F16530"/>
</svg>
