<svg width="375" height="609" viewBox="0 0 375 609" fill="none" xmlns="http://www.w3.org/2000/svg">
<path d="M93.1 572.328C62.0667 533.669 31.0333 533.669 0 572.328V0H931V572.328C894.479 603.932 863.446 603.932 837.9 572.328C806.867 523.432 775.833 523.432 744.8 572.328C716.427 621.224 685.393 621.224 651.7 572.328C620.667 530.588 588.017 529.476 558.6 572.328C529.183 615.181 512.5 614.068 465.5 572.328C434.467 551.756 403.433 551.756 372.4 572.328C337.003 592.9 305.969 592.9 279.3 572.328C248.267 543.706 217.233 543.706 186.2 572.328C151.138 600.95 120.105 600.95 93.1 572.328Z" fill="url(#paint0_linear_107_3100)"/>
<defs>
<linearGradient id="paint0_linear_107_3100" x1="465.5" y1="0" x2="465.5" y2="609" gradientUnits="userSpaceOnUse">
<stop stop-color="#FFF0E9"/>
<stop offset="1" stop-color="#FFC9A3"/>
</linearGradient>
</defs>
</svg>
