<svg width="80" height="659" viewBox="0 0 80 659" fill="none" xmlns="http://www.w3.org/2000/svg">
<path opacity="0.1" d="M280.161 73.358C349.73 92.2523 419.18 126.045 452.426 190.042C481.523 246.052 429.2 308.51 434.978 371.369C443.763 466.958 564.547 577.006 493.966 642.023C424.661 705.865 329.535 570.254 236.746 553.975C160.092 540.527 59.3163 619.465 12.1881 557.5C-35.4536 494.859 71.8669 417.34 72.9668 338.632C74.2825 244.477 -38.9823 146.512 18.9682 72.3174C74.7007 0.962242 192.812 49.6346 280.161 73.358Z" fill="#F16530"/>
<path opacity="0.1" d="M327.354 7.14705C386.312 34.0203 391.612 115.296 399.525 179.583C405.665 229.471 392.29 277.886 365.945 320.699C342.236 359.228 307.075 390.339 263.148 401.206C222.25 411.323 183.112 391.934 144.309 375.526C101.564 357.452 51.3137 345.252 31.549 303.276C10.383 258.324 20.7448 204.784 42.9967 160.359C65.1761 116.079 106.777 89.5196 150.386 66.0232C207.278 35.3696 268.549 -19.657 327.354 7.14705Z" fill="#F16530"/>
</svg>
