<svg width="324" height="659" viewBox="0 0 324 659" fill="none" xmlns="http://www.w3.org/2000/svg">
<path d="M305.437 145.322H289.338V652.216H305.437V145.322Z" fill="url(#paint0_linear_18_2400)"/>
<path d="M265.076 652.216H249.043V238.444L254.962 230.338L265.076 652.216Z" fill="#FFD663"/>
<path d="M292.961 145.322H284.828V652.216H292.961V145.322Z" fill="#FFD663"/>
<path d="M266.849 652.215H241.592V359.319L250.918 353.541L266.849 652.215Z" fill="#FFD663"/>
<path d="M323.345 292.254H305.508V652.216H323.345V292.254Z" fill="url(#paint1_linear_18_2400)"/>
<path d="M309.525 292.254H300.508V652.216H309.525V292.254Z" fill="#FFD663"/>
<path d="M260.765 652.216H235.51V459.556L244.834 456.211L260.765 652.216Z" fill="#FFD663"/>
<path d="M280.645 652.215H273.258V22.5822L280.645 0V652.215Z" fill="#FFD663"/>
<path d="M288.034 0H280.649V652.215H288.034V0Z" fill="url(#paint2_linear_18_2400)"/>
<path d="M277.058 652.215H261.023V97.851L266.945 79.0078L277.058 652.215Z" fill="#FFD663"/>
<path d="M277.059 79.0078H266.945V652.215H277.059V79.0078Z" fill="url(#paint3_linear_18_2400)"/>
<path d="M269.766 230.338H254.963V652.216H269.766V230.338Z" fill="url(#paint4_linear_18_2400)"/>
<path d="M266.849 353.541H250.918V652.215H266.849V353.541Z" fill="url(#paint5_linear_18_2400)"/>
<path d="M262.578 456.211H244.834V652.216H262.578V456.211Z" fill="url(#paint6_linear_18_2400)"/>
<path d="M254.867 545.801H231.301V652.216H254.867V545.801Z" fill="url(#paint7_linear_18_2400)"/>
<path d="M236.603 545.801H224.693V652.216H236.603V545.801Z" fill="#FFD663"/>
<path d="M254.865 545.801H236.604V554.212H254.865V545.801Z" fill="#FFBA9F"/>
<path d="M262.836 455.896H244.574V464.308H262.836V455.896Z" fill="#FFBA9F"/>
<path d="M268.013 353.541H251.143V361.952H268.013V353.541Z" fill="#FFBA9F"/>
<path d="M269.855 230.338H254.875V236.509H269.855V230.338Z" fill="#FFBA9F"/>
<path d="M277.059 78.9551H266.643V85.1241H277.059V78.9551Z" fill="#FFBA9F"/>
<path d="M236.603 545.801H224.693V554.212H236.603V545.801Z" fill="#FFEFC2"/>
<path d="M244.575 455.896L235.51 459.556V467.85L244.575 464.308V455.896Z" fill="#FFEFC2"/>
<path d="M251.144 353.541L241.592 359.319V368.163L251.144 361.952V353.541Z" fill="#FFEFC2"/>
<path d="M254.874 230.338L249.043 238.444V244.892L254.874 236.509V230.338Z" fill="#FFEFC2"/>
<path d="M266.945 79.0078L261.023 97.8532V103.98L266.642 85.1238L266.945 79.0078Z" fill="#FFEFC2"/>
<path d="M305.438 145.322H292.961V150.552H305.438V145.322Z" fill="#FFBA9F"/>
<path d="M284.874 585.221H280.645V595.54H284.874V585.221Z" fill="#FFCF00"/>
<path d="M266.876 585.221H262.646V588.767H266.876V585.221Z" fill="#FFCF00"/>
<path d="M301.015 585.221H292.75V595.54H301.015V585.221Z" fill="#FFFF00"/>
<path d="M254.962 585.221H236.604V588.767H254.962V585.221Z" fill="#FFFF00"/>
<path d="M236.603 585.221H224.693V588.767H236.603V585.221Z" fill="#FFCF00"/>
<path d="M288.765 382.109H251.143V386.591H288.765V382.109Z" fill="#FFFF00"/>
<path d="M288.766 382.109H271.705V386.591H288.766V382.109Z" fill="#FFCF00"/>
<path d="M288.766 382.109H283.994V386.591H288.766V382.109Z" fill="#FF8900"/>
<path d="M304.288 187.506H280.645V191.986H304.288V187.506Z" fill="#FFFF00"/>
<path d="M304.288 187.506H293.568V191.986H304.288V187.506Z" fill="#FFCF00"/>
<path d="M304.289 187.506H301.291V191.986H304.289V187.506Z" fill="#FF8900"/>
<path d="M298.187 382.109H292.535V386.591H298.187V382.109Z" fill="#FFFF00"/>
<path d="M272.778 124.879H267.131V129.359H272.778V124.879Z" fill="#FFFF00"/>
<path fill-rule="evenodd" clip-rule="evenodd" d="M280.645 393.751H280.645V386.591H280.645V393.751ZM280.645 382.109H280.645V332.788L280.645 332.783V382.109Z" fill="url(#paint8_linear_18_2400)"/>
<path fill-rule="evenodd" clip-rule="evenodd" d="M300.507 393.752H292.961V386.592H298.186V382.11H292.961V224.625H302.789L302.34 292.254H300.507V393.752Z" fill="url(#paint9_linear_18_2400)"/>
<path d="M292.962 393.75H288.035V386.591H288.767V382.109H288.035V300.538L292.962 289.482V382.109H292.535V386.591H292.962V393.75Z" fill="#FFDB80"/>
<path d="M309.525 393.751H300.508V292.254H302.341L302.305 297.483H309.525V393.751Z" fill="#FFDB80"/>
<path d="M280.645 393.75H277.059V386.59H280.645V393.75ZM280.645 382.108H277.059V335.547L280.645 332.787V382.108Z" fill="#FFDB80"/>
<path fill-rule="evenodd" clip-rule="evenodd" d="M288.034 393.751H280.649V386.592H288.034V393.751ZM288.034 382.11H280.649V300.539H288.034V382.11Z" fill="url(#paint10_linear_18_2400)"/>
<path fill-rule="evenodd" clip-rule="evenodd" d="M277.057 393.75H269.953V386.591H277.057V393.75ZM277.057 382.109H269.953V335.547H277.057V382.109Z" fill="url(#paint11_linear_18_2400)"/>
<path d="M271.704 386.591H269.953V382.109H288.765H271.704V386.591Z" fill="#FFFF00"/>
<path d="M283.994 386.591H271.705V382.109H288.766H283.994V386.591Z" fill="#FFD400"/>
<path d="M288.766 386.591H283.994V382.109H288.766V386.591Z" fill="#FF9500"/>
<path d="M298.187 386.591H292.535V382.109H298.187V386.591Z" fill="#FFFF00"/>
<path d="M288.034 198.367H280.648V279.35H288.034V198.367Z" fill="url(#paint12_linear_18_2400)"/>
<path fill-rule="evenodd" clip-rule="evenodd" d="M250.917 416.312C248.333 408.746 245.454 401.219 242.252 393.752H250.917V416.312Z" fill="url(#paint13_linear_18_2400)"/>
<path fill-rule="evenodd" clip-rule="evenodd" d="M262.837 460.381C262.53 458.884 262.216 457.398 261.891 455.896H262.837V460.381Z" fill="url(#paint14_linear_18_2400)"/>
<path fill-rule="evenodd" clip-rule="evenodd" d="M292.962 635.912H288.035V393.752H292.962V585.222H292.749V595.541H292.962V635.912Z" fill="url(#paint15_linear_18_2400)"/>
<path fill-rule="evenodd" clip-rule="evenodd" d="M309.525 635.91H300.508V595.539H301.014V585.22H300.508V393.75H309.525V635.91Z" fill="url(#paint16_linear_18_2400)"/>
<path fill-rule="evenodd" clip-rule="evenodd" d="M280.645 635.912H277.059V393.752H280.645V635.912Z" fill="url(#paint17_linear_18_2400)"/>
<path fill-rule="evenodd" clip-rule="evenodd" d="M284.874 595.54H280.645V585.221H284.874V595.54Z" fill="url(#paint18_linear_18_2400)"/>
<path fill-rule="evenodd" clip-rule="evenodd" d="M301.015 595.54H292.75V585.221H301.015V595.54Z" fill="url(#paint19_linear_18_2400)"/>
<path fill-rule="evenodd" clip-rule="evenodd" d="M133.704 268.465L71.7793 260.748C116.986 331.416 169.67 458.553 167.74 653.766L262.031 650.762C262.031 650.762 323.896 382.004 133.704 268.465Z" fill="url(#paint20_linear_18_2400)"/>
<path fill-rule="evenodd" clip-rule="evenodd" d="M47.9374 653.77H10.5938L10.6911 635.911L11.12 556.85L12.8469 238.811L12.8801 232.644L12.984 213.29L13.099 192.057H26.5448V200.848C26.5448 200.848 27.9754 202.372 30.5337 205.403L18.1956 203.393V264.816L42.6396 266.092L15.9513 270.985V293.939L15.8363 293.961L15.9513 294.56V357.099L15.8739 357.11L15.9513 357.716V390.105L15.8828 390.111L15.9513 390.719V485.042L15.9248 485.044L15.9513 485.65V653.116L39.2809 653.215V653.768H40.5036V653.22L47.9352 653.253L47.9374 653.77ZM42.6396 266.092V220.806C43.8491 222.44 45.105 224.162 46.4162 225.995L46.4538 236.533L46.4692 240.699L46.5577 265.375L42.6396 266.092ZM46.3698 212.669C45.1359 210.946 43.8977 209.239 42.6396 207.523V207.373L42.5158 207.353C38.748 202.219 34.8918 197.136 30.9007 192.057H30.9759C36.3135 198.759 41.4412 205.6 46.3698 212.569V212.669ZM46.3167 197.757C44.466 195.526 42.843 193.627 41.4743 192.057H46.2968L46.3167 197.757Z" fill="url(#paint21_linear_18_2400)"/>
<path fill-rule="evenodd" clip-rule="evenodd" d="M155.946 653.716L47.9351 653.252L40.5035 653.219V635.91H54.5906V625.215H74.7825L75.3375 650.046L76.5603 650.019L76.0053 625.215H157.118C156.895 634.564 156.508 644.069 155.946 653.716ZM39.2807 653.214L15.9512 653.115V485.649V635.91H39.2807V653.214ZM157.131 624.647V623.992H75.9787L75.5144 603.203H156.725V601.983H75.4879L75.1916 588.738H75.9478V554.404L136.632 553.263L136.513 546.842L75.9478 547.978V484.229H114.132V481.848L147.058 480.366L147.031 479.75C154.343 523.156 158.367 571.5 157.131 624.647ZM74.756 623.992H54.5906V603.203H74.2917L74.756 623.992ZM74.2651 601.983H54.5906V588.738H73.9688L74.2651 601.983ZM15.9512 485.041V390.719L16.0219 391.324L29.156 389.799L15.9512 402.687V485.041ZM114.132 480.623V428.151H136.338C136.338 428.151 135.27 423.824 133.457 416.894C138.622 436.365 143.199 457.123 146.929 479.146L114.132 480.623ZM15.9512 390.104V357.715L16.0308 358.321L33.8767 356.004V385.186L30.5844 388.401L15.9512 390.104ZM35.0995 383.995V355.845L68.357 351.527L35.0995 383.995ZM15.9512 357.099V294.559L16.0683 295.161L33.8767 291.744V354.77L15.9512 357.099ZM35.0995 354.611V291.51L81.2722 282.652C87.4036 294.185 93.6633 306.917 99.8279 320.838C99.8213 320.832 99.8169 320.827 99.8102 320.821L88.8519 331.52L88.9337 326.828L69.4117 329.822L69.1243 316.889L67.9015 316.918L68.1934 330.01L39.5483 334.406L39.3869 340.929L68.3393 336.486L68.6467 350.255L35.0995 354.611ZM69.865 350.056L69.5577 336.298L86.6408 333.678L69.865 350.056ZM15.9512 293.938V270.984L42.6395 266.091L46.5575 265.375L69.2591 261.211C72.9716 267.499 76.7925 274.268 80.6708 281.525L15.9512 293.938Z" fill="url(#paint22_linear_18_2400)"/>
<path fill-rule="evenodd" clip-rule="evenodd" d="M249.454 650.369C239.919 650.893 250.597 650.316 186.322 653.77C186.322 653.77 199.471 583.655 181.428 478.631C169.771 410.812 143.174 342.225 114.133 285.311L149.336 292.01C200.424 328.885 277.141 451.607 249.454 650.369Z" fill="url(#paint23_linear_18_2400)"/>
<path fill-rule="evenodd" clip-rule="evenodd" d="M254.55 597.346L249.454 650.369L242.303 650.763C273.091 394.949 148.177 299.398 148.177 299.398L119.229 293.452L119.163 293.355L114.493 285.874L114.133 285.311L149.336 292.01C149.336 292.01 266.008 376.221 254.55 597.346Z" fill="url(#paint24_linear_18_2400)"/>
<path d="M0 653.115L3.72796 201.051L13.0987 192.058L10.5935 653.77L0 653.115Z" fill="#FFD663"/>
<path d="M18.1953 192.059L18.7172 83.6189L23.6922 76.5742V192.059H18.1953Z" fill="#FFEFC2"/>
<path d="M23.6934 76.5742H29.2654L31.6534 193.025L23.6934 192.059V76.5742Z" fill="#FFBA9F"/>
<path fill-rule="evenodd" clip-rule="evenodd" d="M42.6393 266.091L18.1953 264.815V203.393L30.5334 205.402C33.3393 208.728 37.5073 213.871 42.6393 220.805V266.091ZM42.6393 207.523C42.6017 207.472 42.5531 207.404 42.5155 207.353L42.6393 207.373V207.523Z" fill="url(#paint25_linear_18_2400)"/>
<path fill-rule="evenodd" clip-rule="evenodd" d="M36.5273 186.586H44.1668C44.1668 186.586 333.015 321.849 271.643 651.603L262.031 650.763C262.031 650.763 333.015 355.688 36.5273 186.586Z" fill="url(#paint26_linear_18_2400)"/>
<path d="M262.031 650.763C262.031 650.763 335.712 350.419 36.5273 186.586L37.9535 192.392C37.9535 192.392 306.331 320.821 255.307 650.033L262.031 650.763Z" fill="#FFD663"/>
<path fill-rule="evenodd" clip-rule="evenodd" d="M176.282 653.77L167.741 653.768C167.741 653.768 190.482 419.152 50.6196 218.678C49.2222 216.635 47.8005 214.592 46.3699 212.569C41.4413 205.599 36.3137 198.758 30.976 192.056C29.5145 190.221 28.0396 188.399 26.5449 186.586H36.5281C36.5281 186.586 38.3125 188.428 41.4744 192.056C42.8431 193.626 44.4661 195.526 46.3168 197.757C52.5367 205.259 61.3082 216.487 71.4153 231.288C73.2151 233.926 75.0636 236.683 76.9409 239.547C77.6108 240.568 78.2764 241.59 78.9552 242.64C83.0524 248.979 87.311 255.852 91.647 263.226C116.398 305.326 143.889 364.124 161.286 438.008C175.802 499.648 183.292 571.788 176.304 653.493C176.296 653.584 176.291 653.679 176.282 653.77Z" fill="url(#paint27_linear_18_2400)"/>
<path d="M167.741 653.768C167.741 653.768 192.989 393.162 26.5449 186.586V200.848C26.5449 200.848 173.184 357.24 155.944 653.77L167.741 653.768Z" fill="#FFD663"/>
<path d="M131.44 421.869L21.5518 431.286L20.4551 418.486L130.344 409.066L131.44 421.869Z" fill="#FFFF00"/>
<path d="M131.442 421.869L81.6163 426.139L80.5195 413.338L130.345 409.066L131.442 421.869Z" fill="#FFCF00"/>
<path fill-rule="evenodd" clip-rule="evenodd" d="M54.5906 635.91H40.5035V625.215H54.5906V635.91ZM39.2807 635.91H15.9512V485.648L15.9799 486.265L39.2807 485.215V548.665L26.2395 548.911L26.3589 555.334L39.2807 555.091V601.982H15.9512V603.203H39.2807V616.551L28.1234 616.761L28.245 623.182L39.2807 622.975V623.992H15.9512V625.215H39.2807V635.91ZM75.9478 588.738H75.1916L74.4265 554.432L75.9478 554.403V588.738ZM74.2828 548.009L72.8478 483.705L114.132 481.848V484.229H75.9478V547.978L74.2828 548.009ZM15.9512 485.04V402.687L29.156 389.798L69.4228 385.115L70.0729 414.234L20.4552 418.486L21.552 431.286L70.3603 427.102L71.5985 482.537L15.9512 485.04Z" fill="url(#paint28_linear_18_2400)"/>
<path d="M21.5518 431.287L20.4551 418.486L70.0727 414.234L70.3601 427.103L21.5518 431.287Z" fill="#FFFF00"/>
<path fill-rule="evenodd" clip-rule="evenodd" d="M72.8193 482.484L71.5811 427L81.6152 426.14L131.441 421.871L130.344 409.068L71.2936 414.132L70.6436 384.976L121.146 379.103L121.004 377.889L70.617 383.749L69.8918 351.329L110.152 346.1L110.052 345.335C118.501 366.847 126.512 390.709 133.457 416.896C135.27 423.825 136.338 428.152 136.338 428.152H114.132V480.625L72.8193 482.484ZM69.8652 350.098V350.058L86.641 333.68L88.819 333.346L88.8522 331.522L99.8105 320.822C99.8171 320.829 99.8216 320.833 99.8282 320.84C103.22 328.502 106.583 336.521 109.882 344.901L69.8652 350.098Z" fill="url(#paint29_linear_18_2400)"/>
<path d="M133.457 416.895C126.512 390.709 118.501 366.847 110.052 345.335L109.995 344.886L109.882 344.901C106.583 336.521 103.22 328.501 99.8281 320.84C110.377 331.8 126.852 391.638 133.457 416.895Z" fill="#FFDB80"/>
<path d="M71.5823 426.999L71.2949 414.13L130.345 409.066L131.442 421.869L130.345 409.066L80.5197 413.338L81.6164 426.139L71.5823 426.999Z" fill="#FFFF00"/>
<path d="M81.6163 426.139L80.5195 413.338L130.345 409.066L131.442 421.869L81.6163 426.139Z" fill="#FFD400"/>
<path fill-rule="evenodd" clip-rule="evenodd" d="M54.59 623.992H40.5029V622.953L40.8545 622.946L40.7329 616.525L40.5029 616.53V603.203H54.59V623.992ZM54.59 601.983H40.5029V555.069L73.2032 554.455L73.9683 588.738H54.59V601.983ZM40.5029 548.644V485.162L71.6245 483.761L73.0595 548.031L40.5029 548.644ZM30.5838 388.401L33.8762 385.186V388.019L30.5838 388.401ZM35.0989 387.877V383.995L68.3564 351.527L68.6726 351.484L69.3957 383.889L35.0989 387.877Z" fill="url(#paint30_linear_18_2400)"/>
<path d="M131.44 421.871L117.503 423.065L116.406 410.264L130.343 409.07L131.44 421.871Z" fill="#FF8900"/>
<path d="M136.633 553.263L26.3598 555.335L26.2404 548.911L136.514 546.842L136.633 553.263Z" fill="#FFFF00"/>
<path d="M136.633 553.263L86.6333 554.203L86.5117 547.779L136.514 546.842L136.633 553.263Z" fill="#FFCF00"/>
<path d="M90.4172 496.607L77.8072 496.845L77.6855 490.422L90.2978 490.186L90.4172 496.607Z" fill="#FFCF00"/>
<path d="M40.8566 622.948L28.2466 623.185L28.125 616.764L40.735 616.527L40.8566 622.948Z" fill="#FFCF00"/>
<path d="M88.8186 333.344L39.3867 340.928L39.5481 334.406L88.9336 326.828L88.8186 333.344Z" fill="#FFCF00"/>
<path d="M136.632 553.263L122.645 553.528L122.525 547.103L136.513 546.842L136.632 553.263Z" fill="#FF8900"/>
<path fill-rule="evenodd" clip-rule="evenodd" d="M157.12 625.215H76.007L75.9805 623.992H157.133V624.647C157.129 624.839 157.124 625.02 157.12 625.215Z" fill="url(#paint31_linear_18_2400)"/>
<path d="M157.119 625.217H157.119C157.119 625.022 157.119 624.841 157.119 624.648V625.217Z" fill="#C38F48"/>
<path fill-rule="evenodd" clip-rule="evenodd" d="M74.7818 625.215H54.5898V623.992H74.7553L74.7818 625.215Z" fill="url(#paint32_linear_18_2400)"/>
<path fill-rule="evenodd" clip-rule="evenodd" d="M54.5906 625.215H40.5035V623.992H54.5906V625.215ZM39.2807 625.215H15.9512V623.992H39.2807V625.215Z" fill="url(#paint33_linear_18_2400)"/>
<path fill-rule="evenodd" clip-rule="evenodd" d="M156.726 603.203H75.5157L75.4891 601.982H156.726V603.203ZM74.2929 603.203H54.5918V601.982H74.2664L74.2929 603.203Z" fill="url(#paint34_linear_18_2400)"/>
<path fill-rule="evenodd" clip-rule="evenodd" d="M54.5906 603.203H40.5035V601.982H54.5906V603.203ZM39.2807 603.203H15.9512V601.982H39.2807V603.203Z" fill="url(#paint35_linear_18_2400)"/>
<path fill-rule="evenodd" clip-rule="evenodd" d="M15.9239 485.649L15.9238 485.043L15.9239 485.041V485.649Z" fill="url(#paint36_linear_18_2400)"/>
<path fill-rule="evenodd" clip-rule="evenodd" d="M15.9799 486.267L15.9512 485.65V485.042L71.5985 482.539L71.6251 483.762L40.5035 485.164V484.578H39.2807V485.217L15.9799 486.267Z" fill="url(#paint37_linear_18_2400)"/>
<path fill-rule="evenodd" clip-rule="evenodd" d="M114.133 481.849V480.624L146.93 479.146C146.964 479.348 146.999 479.549 147.032 479.75L147.059 480.367L114.133 481.849Z" fill="url(#paint38_linear_18_2400)"/>
<path d="M146.93 479.75C146.93 479.549 146.93 479.348 146.93 479.147L146.93 479.145L146.93 479.75Z" fill="#C38F48"/>
<path fill-rule="evenodd" clip-rule="evenodd" d="M72.8491 483.705L72.8203 482.483L114.133 480.623V481.848L72.8491 483.705Z" fill="url(#paint39_linear_18_2400)"/>
<path fill-rule="evenodd" clip-rule="evenodd" d="M15.883 390.718L15.8828 390.11L15.883 390.104V390.718Z" fill="url(#paint40_linear_18_2400)"/>
<path fill-rule="evenodd" clip-rule="evenodd" d="M16.0219 391.325L15.9512 390.72V390.105L30.5844 388.402L29.156 389.8L16.0219 391.325Z" fill="url(#paint41_linear_18_2400)"/>
<path fill-rule="evenodd" clip-rule="evenodd" d="M29.1562 389.8L30.5846 388.403L33.877 388.02V388.564H35.0998V387.879L69.3965 383.89L69.423 385.117L29.1562 389.8ZM70.6436 384.975L70.617 383.748L121.004 377.889L121.146 379.103L70.6436 384.975Z" fill="url(#paint42_linear_18_2400)"/>
<path fill-rule="evenodd" clip-rule="evenodd" d="M15.8752 357.716L15.875 357.111L15.8752 357.1V357.716Z" fill="url(#paint43_linear_18_2400)"/>
<path fill-rule="evenodd" clip-rule="evenodd" d="M16.0308 358.322L15.9512 357.716V357.099L33.8767 354.771V356.005L16.0308 358.322ZM35.0995 355.846V354.612L68.6467 350.256L68.6666 351.224L68.357 351.527L35.0995 355.846Z" fill="url(#paint44_linear_18_2400)"/>
<path fill-rule="evenodd" clip-rule="evenodd" d="M68.3555 351.527L68.665 351.224L68.6716 351.485L68.3555 351.527ZM69.89 351.328L69.8634 350.097L109.88 344.9C109.938 345.044 109.993 345.188 110.051 345.334L110.15 346.099L69.89 351.328Z" fill="url(#paint45_linear_18_2400)"/>
<path d="M109.881 345.334C109.881 345.188 109.881 345.044 109.881 344.9L109.881 344.885L109.881 345.334Z" fill="#C3925D"/>
<path fill-rule="evenodd" clip-rule="evenodd" d="M15.8362 294.559L15.8359 293.96L15.8362 293.938V294.559Z" fill="url(#paint46_linear_18_2400)"/>
<path fill-rule="evenodd" clip-rule="evenodd" d="M16.0683 295.161L15.9512 294.56V293.939L80.6708 281.525C80.8698 281.899 81.0732 282.277 81.2722 282.653L35.0995 291.511V291.004H33.8767V291.745L16.0683 295.161Z" fill="url(#paint47_linear_18_2400)"/>
<path d="M81.2733 282.651C81.0743 282.276 80.8709 281.898 80.6719 281.524L81.3772 281.387L81.6094 282.587L81.2733 282.651Z" fill="#C38F48"/>
<path fill-rule="evenodd" clip-rule="evenodd" d="M75.3374 650.046L74.7824 625.215L74.7559 623.992L74.2916 603.203L74.265 601.983L73.9688 588.738H75.1915L75.4878 601.983L75.5143 603.203L75.9787 623.992L76.0052 625.215L76.5602 650.02L75.3374 650.046Z" fill="url(#paint48_linear_18_2400)"/>
<path fill-rule="evenodd" clip-rule="evenodd" d="M75.1909 588.737H73.9682L73.2031 554.454L74.4259 554.432L75.1909 588.737Z" fill="url(#paint49_linear_18_2400)"/>
<path fill-rule="evenodd" clip-rule="evenodd" d="M68.6671 351.224L68.6472 350.255L68.3398 336.487L69.5582 336.299L69.8655 350.056L68.6671 351.224Z" fill="url(#paint50_linear_18_2400)"/>
<path fill-rule="evenodd" clip-rule="evenodd" d="M73.0615 548.032L71.6264 483.761L71.5999 482.538L70.3617 427.103L71.5822 426.999L72.8204 482.483L72.8492 483.706L74.2842 548.01L73.0615 548.032ZM70.0742 414.235L69.4242 385.116L69.3976 383.889L68.6746 351.485L68.668 351.224L69.8664 350.057V350.096L69.8929 351.328L70.6182 383.748L70.6447 384.975L71.2948 414.131L70.0742 414.235Z" fill="url(#paint51_linear_18_2400)"/>
<path d="M70.3616 427.103L70.0742 414.235L71.2948 414.131L71.5822 427L70.3616 427.103Z" fill="#C3AB00"/>
<path d="M73.2023 554.455L73.0586 548.032L74.2813 548.01L74.4251 554.433L73.2023 554.455Z" fill="#C3AB00"/>
<path fill-rule="evenodd" clip-rule="evenodd" d="M68.1923 330.009L67.9004 316.917L69.1232 316.889L69.4106 329.822L68.1923 330.009Z" fill="url(#paint52_linear_18_2400)"/>
<path d="M68.3393 336.487L68.1934 330.01L69.4117 329.822L69.5576 336.299L68.3393 336.487Z" fill="#C38B00"/>
<path fill-rule="evenodd" clip-rule="evenodd" d="M33.877 385.187V291.004H35.0997V383.995L33.877 385.187Z" fill="url(#paint53_linear_18_2400)"/>
<path fill-rule="evenodd" clip-rule="evenodd" d="M35.0997 388.564H33.877V385.188L35.0997 383.996V388.564Z" fill="url(#paint54_linear_18_2400)"/>
<path fill-rule="evenodd" clip-rule="evenodd" d="M40.504 653.768H39.2812V653.215L40.504 653.219V653.768Z" fill="url(#paint55_linear_18_2400)"/>
<path fill-rule="evenodd" clip-rule="evenodd" d="M40.504 653.221L39.2812 653.216V635.912H40.504V653.221Z" fill="url(#paint56_linear_18_2400)"/>
<path fill-rule="evenodd" clip-rule="evenodd" d="M40.504 635.91H39.2812V622.975L40.504 622.953V635.91ZM39.2812 616.552V555.091L40.504 555.069V616.529L39.2812 616.552ZM39.2812 548.666V484.576H40.504V548.643L39.2812 548.666Z" fill="url(#paint57_linear_18_2400)"/>
<path d="M39.2812 555.092V548.667L40.504 548.645V555.07L39.2812 555.092Z" fill="#C3AB00"/>
<path d="M39.2812 622.975V616.551L40.504 616.529V622.953L39.2812 622.975Z" fill="#C38B00"/>
<path d="M126.365 310.334L163.147 313.766L176.655 317.843L128.738 315.515L126.365 310.334Z" fill="#FFA463"/>
<path d="M139.451 339.783L184.735 341.159L196.297 345.492L142.217 346.534L139.451 339.783Z" fill="#FFA463"/>
<path d="M152.387 372.611H203.484L216.096 380.463L155.871 382.32L152.387 372.611Z" fill="#FFA463"/>
<path d="M164.926 409.952L219.474 409.664L231.856 418.442L167.537 418.674L164.926 409.952Z" fill="#FFA463"/>
<path d="M174.408 444.728L230.938 443.598L241.878 452.915L176.657 454.437L174.408 444.728Z" fill="#FFA463"/>
<path d="M182.109 482.703L239.846 484.023L249.878 492.074H183.624L182.109 482.703Z" fill="#FFA463"/>
<path d="M187.537 522.904L245.144 525.177L254.247 534.67L188.643 534.517L187.537 522.904Z" fill="#FFA463"/>
<path d="M190.668 569.172L247.284 571.626L255.164 580.796H190.911L190.668 569.172Z" fill="#FFA463"/>
<path d="M190.229 615.105H245.682L252.508 624.602H189.637L190.229 615.105Z" fill="#FFA463"/>
<path d="M249.879 492.074H183.625L183.842 493.699L249.879 492.074Z" fill="#FF7C48"/>
<path d="M188.643 534.518H244.33L188.866 537.202L188.643 534.518Z" fill="#FF7C48"/>
<path d="M190.91 580.797H255.163L190.923 582.095L190.91 580.797Z" fill="#FF7C48"/>
<path d="M167.203 417.604L223.138 418.472L167.537 418.674L167.203 417.604Z" fill="#FF7C48"/>
<path d="M176.656 454.437L241.878 452.916L176.99 455.936L176.656 454.437Z" fill="#FF7C48"/>
<path d="M13.0994 567.54L156.351 565.76L156.725 574.091H11.0254L13.0994 567.54Z" fill="#FFD663"/>
<path d="M11.6816 453.197L140.214 444.728L138.445 436.916L13.099 444.914L11.6816 453.197Z" fill="#FFD663"/>
<path d="M92.8551 305.684L13.0977 320.821L15.95 325.347L96.0811 312.474L92.8551 305.684Z" fill="#FFD663"/>
<path d="M131.363 453.714L78.5927 497.784L23.3079 558.199L84.8302 511.153L131.363 453.714ZM13.8421 568.514L12.1992 566.716L76.9056 496.022L139.432 443.793L141.165 445.498L86.4311 513.008L13.8421 568.514Z" fill="#FFD663"/>
<path d="M145.176 581.155L77.1999 614.7L25.7449 648.197L83.8156 626.769L145.176 581.155ZM6.1543 658.032L75.9904 612.58L156.186 572.994L157.455 575.073L84.8283 629L6.1543 658.032Z" fill="#FFD663"/>
<path d="M87.5746 327.614L53.4392 379.437L25.5305 431.796L59.9245 386.112L87.5746 327.614ZM18.0502 445.792L15.9961 444.483L51.3409 378.192L95.0614 311.803L97.1886 312.999L61.9521 387.481L18.0502 445.792Z" fill="#FFD663"/>
<defs>
<linearGradient id="paint0_linear_18_2400" x1="297.386" y1="652.216" x2="297.386" y2="145.322" gradientUnits="userSpaceOnUse">
<stop stop-color="#D8485B"/>
<stop offset="1" stop-color="#FD8956"/>
</linearGradient>
<linearGradient id="paint1_linear_18_2400" x1="314.428" y1="652.216" x2="314.428" y2="292.254" gradientUnits="userSpaceOnUse">
<stop stop-color="#D8485B"/>
<stop offset="1" stop-color="#FD8956"/>
</linearGradient>
<linearGradient id="paint2_linear_18_2400" x1="284.341" y1="652.215" x2="284.341" y2="-0.00221589" gradientUnits="userSpaceOnUse">
<stop stop-color="#D8485B"/>
<stop offset="1" stop-color="#FD8956"/>
</linearGradient>
<linearGradient id="paint3_linear_18_2400" x1="272.002" y1="652.215" x2="272.002" y2="79.0056" gradientUnits="userSpaceOnUse">
<stop stop-color="#D8485B"/>
<stop offset="1" stop-color="#FD8956"/>
</linearGradient>
<linearGradient id="paint4_linear_18_2400" x1="262.366" y1="652.216" x2="262.366" y2="230.338" gradientUnits="userSpaceOnUse">
<stop stop-color="#D8485B"/>
<stop offset="1" stop-color="#FD8956"/>
</linearGradient>
<linearGradient id="paint5_linear_18_2400" x1="258.885" y1="652.215" x2="258.885" y2="353.541" gradientUnits="userSpaceOnUse">
<stop stop-color="#D8485B"/>
<stop offset="1" stop-color="#FD8956"/>
</linearGradient>
<linearGradient id="paint6_linear_18_2400" x1="253.707" y1="652.216" x2="253.707" y2="456.21" gradientUnits="userSpaceOnUse">
<stop stop-color="#D8485B"/>
<stop offset="1" stop-color="#FD8956"/>
</linearGradient>
<linearGradient id="paint7_linear_18_2400" x1="243.084" y1="652.216" x2="243.084" y2="545.802" gradientUnits="userSpaceOnUse">
<stop stop-color="#D8485B"/>
<stop offset="1" stop-color="#FD8956"/>
</linearGradient>
<linearGradient id="paint8_linear_18_2400" x1="280.597" y1="655.784" x2="280.597" y2="-102.112" gradientUnits="userSpaceOnUse">
<stop stop-color="#FFF45F"/>
<stop offset="0.6" stop-color="#F68399"/>
<stop offset="1" stop-color="#5E75E2"/>
</linearGradient>
<linearGradient id="paint9_linear_18_2400" x1="297.388" y1="652.217" x2="297.388" y2="145.323" gradientUnits="userSpaceOnUse">
<stop stop-color="#E1577A"/>
<stop offset="1" stop-color="#FE9575"/>
</linearGradient>
<linearGradient id="paint10_linear_18_2400" x1="284.341" y1="652.216" x2="284.341" y2="-0.00126979" gradientUnits="userSpaceOnUse">
<stop stop-color="#E1577A"/>
<stop offset="1" stop-color="#FE9575"/>
</linearGradient>
<linearGradient id="paint11_linear_18_2400" x1="272.001" y1="652.215" x2="272.001" y2="79.0057" gradientUnits="userSpaceOnUse">
<stop stop-color="#E1577A"/>
<stop offset="1" stop-color="#FE9575"/>
</linearGradient>
<linearGradient id="paint12_linear_18_2400" x1="284.341" y1="652.216" x2="284.341" y2="-0.00157458" gradientUnits="userSpaceOnUse">
<stop stop-color="#BC3A4E"/>
<stop offset="1" stop-color="#DC6F49"/>
</linearGradient>
<linearGradient id="paint13_linear_18_2400" x1="290.282" y1="393.752" x2="290.282" y2="638.227" gradientUnits="userSpaceOnUse">
<stop stop-color="#FFD663"/>
<stop offset="1" stop-color="#FFFA92"/>
</linearGradient>
<linearGradient id="paint14_linear_18_2400" x1="290.282" y1="393.751" x2="290.282" y2="638.226" gradientUnits="userSpaceOnUse">
<stop stop-color="#FFBA9F"/>
<stop offset="1" stop-color="#FFF6BC"/>
</linearGradient>
<linearGradient id="paint15_linear_18_2400" x1="290.284" y1="393.752" x2="290.284" y2="638.227" gradientUnits="userSpaceOnUse">
<stop stop-color="#FFDB80"/>
<stop offset="1" stop-color="#FFFAA6"/>
</linearGradient>
<linearGradient id="paint16_linear_18_2400" x1="290.284" y1="393.75" x2="290.284" y2="638.225" gradientUnits="userSpaceOnUse">
<stop stop-color="#FFDB80"/>
<stop offset="1" stop-color="#FFFAA6"/>
</linearGradient>
<linearGradient id="paint17_linear_18_2400" x1="290.283" y1="393.752" x2="290.283" y2="638.227" gradientUnits="userSpaceOnUse">
<stop stop-color="#FFDB80"/>
<stop offset="1" stop-color="#FFFAA6"/>
</linearGradient>
<linearGradient id="paint18_linear_18_2400" x1="290.283" y1="393.75" x2="290.283" y2="638.226" gradientUnits="userSpaceOnUse">
<stop stop-color="#FFD400"/>
<stop offset="1" stop-color="#FFF94D"/>
</linearGradient>
<linearGradient id="paint19_linear_18_2400" x1="290.285" y1="393.75" x2="290.285" y2="638.226" gradientUnits="userSpaceOnUse">
<stop stop-color="#FFFF00"/>
<stop offset="1" stop-color="#FFFF4D"/>
</linearGradient>
<linearGradient id="paint20_linear_18_2400" x1="171.711" y1="653.764" x2="171.711" y2="260.748" gradientUnits="userSpaceOnUse">
<stop stop-color="#62153D"/>
<stop offset="1" stop-color="#95284D"/>
</linearGradient>
<linearGradient id="paint21_linear_18_2400" x1="29.2645" y1="653.77" x2="29.2645" y2="192.059" gradientUnits="userSpaceOnUse">
<stop stop-color="#D8485B"/>
<stop offset="1" stop-color="#E66056"/>
</linearGradient>
<linearGradient id="paint22_linear_18_2400" x1="93.586" y1="653.765" x2="93.586" y2="259.977" gradientUnits="userSpaceOnUse">
<stop stop-color="#FF5054"/>
<stop offset="1" stop-color="#FFAC64"/>
</linearGradient>
<linearGradient id="paint23_linear_18_2400" x1="184.721" y1="653.77" x2="184.721" y2="285.311" gradientUnits="userSpaceOnUse">
<stop stop-color="#BA2D3D"/>
<stop offset="0.6" stop-color="#FF6844"/>
<stop offset="1" stop-color="#FF8A4F"/>
</linearGradient>
<linearGradient id="paint24_linear_18_2400" x1="184.738" y1="650.763" x2="184.738" y2="285.311" gradientUnits="userSpaceOnUse">
<stop stop-color="#BA3831"/>
<stop offset="1" stop-color="#FF6048"/>
</linearGradient>
<linearGradient id="paint25_linear_18_2400" x1="29.2642" y1="653.77" x2="29.2642" y2="192.058" gradientUnits="userSpaceOnUse">
<stop stop-color="#BC3A4E"/>
<stop offset="1" stop-color="#C84E49"/>
</linearGradient>
<linearGradient id="paint26_linear_18_2400" x1="158.365" y1="651.603" x2="158.365" y2="186.586" gradientUnits="userSpaceOnUse">
<stop stop-color="#D8485B"/>
<stop offset="1" stop-color="#E66056"/>
</linearGradient>
<linearGradient id="paint27_linear_18_2400" x1="102.749" y1="653.77" x2="102.749" y2="186.586" gradientUnits="userSpaceOnUse">
<stop stop-color="#D8485B"/>
<stop offset="1" stop-color="#E66056"/>
</linearGradient>
<linearGradient id="paint28_linear_18_2400" x1="93.5859" y1="653.765" x2="93.5859" y2="259.977" gradientUnits="userSpaceOnUse">
<stop stop-color="#FF6072"/>
<stop offset="1" stop-color="#FFB582"/>
</linearGradient>
<linearGradient id="paint29_linear_18_2400" x1="93.5862" y1="653.767" x2="93.5862" y2="259.979" gradientUnits="userSpaceOnUse">
<stop stop-color="#FF6072"/>
<stop offset="1" stop-color="#FFB582"/>
</linearGradient>
<linearGradient id="paint30_linear_18_2400" x1="93.5854" y1="653.765" x2="93.5854" y2="259.977" gradientUnits="userSpaceOnUse">
<stop stop-color="#FF6072"/>
<stop offset="1" stop-color="#FFB582"/>
</linearGradient>
<linearGradient id="paint31_linear_18_2400" x1="93.5876" y1="653.765" x2="93.5876" y2="259.971" gradientUnits="userSpaceOnUse">
<stop stop-color="#C3363D"/>
<stop offset="1" stop-color="#C37349"/>
</linearGradient>
<linearGradient id="paint32_linear_18_2400" x1="93.5852" y1="653.765" x2="93.5852" y2="259.971" gradientUnits="userSpaceOnUse">
<stop stop-color="#C3363D"/>
<stop offset="1" stop-color="#C37349"/>
</linearGradient>
<linearGradient id="paint33_linear_18_2400" x1="93.586" y1="653.765" x2="93.586" y2="259.971" gradientUnits="userSpaceOnUse">
<stop stop-color="#C34053"/>
<stop offset="1" stop-color="#C3795E"/>
</linearGradient>
<linearGradient id="paint34_linear_18_2400" x1="93.5872" y1="653.762" x2="93.5872" y2="259.995" gradientUnits="userSpaceOnUse">
<stop stop-color="#C3363D"/>
<stop offset="1" stop-color="#C37349"/>
</linearGradient>
<linearGradient id="paint35_linear_18_2400" x1="93.586" y1="653.762" x2="93.586" y2="259.995" gradientUnits="userSpaceOnUse">
<stop stop-color="#C34053"/>
<stop offset="1" stop-color="#C3795E"/>
</linearGradient>
<linearGradient id="paint36_linear_18_2400" x1="15.9572" y1="653.766" x2="15.9572" y2="192.065" gradientUnits="userSpaceOnUse">
<stop stop-color="#A63043"/>
<stop offset="1" stop-color="#B1403F"/>
</linearGradient>
<linearGradient id="paint37_linear_18_2400" x1="93.5859" y1="653.767" x2="93.5859" y2="259.978" gradientUnits="userSpaceOnUse">
<stop stop-color="#C34053"/>
<stop offset="1" stop-color="#C3795E"/>
</linearGradient>
<linearGradient id="paint38_linear_18_2400" x1="93.587" y1="653.768" x2="93.587" y2="259.975" gradientUnits="userSpaceOnUse">
<stop stop-color="#C3363D"/>
<stop offset="1" stop-color="#C37349"/>
</linearGradient>
<linearGradient id="paint39_linear_18_2400" x1="93.5872" y1="653.767" x2="93.5872" y2="259.975" gradientUnits="userSpaceOnUse">
<stop stop-color="#C34053"/>
<stop offset="1" stop-color="#C3795E"/>
</linearGradient>
<linearGradient id="paint40_linear_18_2400" x1="15.9163" y1="653.769" x2="15.9163" y2="192.058" gradientUnits="userSpaceOnUse">
<stop stop-color="#A63043"/>
<stop offset="1" stop-color="#B1403F"/>
</linearGradient>
<linearGradient id="paint41_linear_18_2400" x1="93.5859" y1="653.764" x2="93.5859" y2="259.979" gradientUnits="userSpaceOnUse">
<stop stop-color="#C3363D"/>
<stop offset="1" stop-color="#C37349"/>
</linearGradient>
<linearGradient id="paint42_linear_18_2400" x1="93.5862" y1="653.766" x2="93.5862" y2="259.978" gradientUnits="userSpaceOnUse">
<stop stop-color="#C34053"/>
<stop offset="1" stop-color="#C3795E"/>
</linearGradient>
<linearGradient id="paint43_linear_18_2400" x1="15.9085" y1="653.762" x2="15.9085" y2="192.064" gradientUnits="userSpaceOnUse">
<stop stop-color="#A63043"/>
<stop offset="1" stop-color="#B1403F"/>
</linearGradient>
<linearGradient id="paint44_linear_18_2400" x1="93.586" y1="653.765" x2="93.586" y2="259.978" gradientUnits="userSpaceOnUse">
<stop stop-color="#C3363D"/>
<stop offset="1" stop-color="#C37349"/>
</linearGradient>
<linearGradient id="paint45_linear_18_2400" x1="93.5844" y1="653.767" x2="93.5844" y2="259.977" gradientUnits="userSpaceOnUse">
<stop stop-color="#C34053"/>
<stop offset="1" stop-color="#C3795E"/>
</linearGradient>
<linearGradient id="paint46_linear_18_2400" x1="15.8695" y1="653.757" x2="15.8695" y2="192.061" gradientUnits="userSpaceOnUse">
<stop stop-color="#A63043"/>
<stop offset="1" stop-color="#B1403F"/>
</linearGradient>
<linearGradient id="paint47_linear_18_2400" x1="93.586" y1="653.765" x2="93.586" y2="259.978" gradientUnits="userSpaceOnUse">
<stop stop-color="#C3363D"/>
<stop offset="1" stop-color="#C37349"/>
</linearGradient>
<linearGradient id="paint48_linear_18_2400" x1="93.5858" y1="653.765" x2="93.5858" y2="259.977" gradientUnits="userSpaceOnUse">
<stop stop-color="#C3363D"/>
<stop offset="1" stop-color="#C37349"/>
</linearGradient>
<linearGradient id="paint49_linear_18_2400" x1="93.5853" y1="653.764" x2="93.5853" y2="259.977" gradientUnits="userSpaceOnUse">
<stop stop-color="#C34053"/>
<stop offset="1" stop-color="#C3795E"/>
</linearGradient>
<linearGradient id="paint50_linear_18_2400" x1="93.5865" y1="653.765" x2="93.5865" y2="259.977" gradientUnits="userSpaceOnUse">
<stop stop-color="#C3363D"/>
<stop offset="1" stop-color="#C37349"/>
</linearGradient>
<linearGradient id="paint51_linear_18_2400" x1="93.5873" y1="653.766" x2="93.5873" y2="259.978" gradientUnits="userSpaceOnUse">
<stop stop-color="#C34053"/>
<stop offset="1" stop-color="#C3795E"/>
</linearGradient>
<linearGradient id="paint52_linear_18_2400" x1="93.5848" y1="653.765" x2="93.5848" y2="259.977" gradientUnits="userSpaceOnUse">
<stop stop-color="#C3363D"/>
<stop offset="1" stop-color="#C37349"/>
</linearGradient>
<linearGradient id="paint53_linear_18_2400" x1="93.5871" y1="653.765" x2="93.5871" y2="259.977" gradientUnits="userSpaceOnUse">
<stop stop-color="#C3363D"/>
<stop offset="1" stop-color="#C37349"/>
</linearGradient>
<linearGradient id="paint54_linear_18_2400" x1="93.5871" y1="653.768" x2="93.5871" y2="259.978" gradientUnits="userSpaceOnUse">
<stop stop-color="#C34053"/>
<stop offset="1" stop-color="#C3795E"/>
</linearGradient>
<linearGradient id="paint55_linear_18_2400" x1="29.2647" y1="653.77" x2="29.2647" y2="192.058" gradientUnits="userSpaceOnUse">
<stop stop-color="#A63043"/>
<stop offset="1" stop-color="#B1403F"/>
</linearGradient>
<linearGradient id="paint56_linear_18_2400" x1="93.5873" y1="653.767" x2="93.5873" y2="259.979" gradientUnits="userSpaceOnUse">
<stop stop-color="#C3363D"/>
<stop offset="1" stop-color="#C37349"/>
</linearGradient>
<linearGradient id="paint57_linear_18_2400" x1="93.5873" y1="653.765" x2="93.5873" y2="259.977" gradientUnits="userSpaceOnUse">
<stop stop-color="#C34053"/>
<stop offset="1" stop-color="#C3795E"/>
</linearGradient>
</defs>
</svg>
