<?xml version="1.0" encoding="UTF-8"?>
<svg id="Layer_1" data-name="Layer 1" xmlns="http://www.w3.org/2000/svg" viewBox="0 0 1440 435.63">
  <defs>
    <style>
      .cls-1 {
        fill: #fafafa;
      }
    </style>
  </defs>
  <path class="cls-1" d="M1440,193.16c-47.14,12.95-99.22,23.45-155.98,31.36-128.37,17.89-245.95,14.12-359.47-11.55-101.88-23.03-191.37-61.24-277.92-98.19C523.58,62.25,396.33,7.92,240.72,.65,159.21-3.16,78.44,9.78,0,39.12v220.28c64.62-36.78,142.73-63.12,231.39-58.98,119.57,5.58,220.2,48.55,336.71,98.29,94.76,40.46,192.74,82.29,312.35,109.33,137.46,31.07,278.5,35.83,431.18,14.55,44.97-6.27,87.79-14.05,128.36-23.32V193.16Z"/>
</svg>